<svg width="179" height="78" viewBox="0 0 179 78" fill="none" xmlns="http://www.w3.org/2000/svg">
<path d="M2 36C5.19089 32.4103 7.67984 27.0561 11.5 24C15.674 20.6608 16.7234 14.4161 22 11.7778C23.1391 11.2082 26.4674 7.91182 27.7778 9.22223C29.3819 10.8264 25.2006 16.903 24.5 18.4445C22.2082 23.4865 21.0045 29.8754 19.2222 35.2222C18.3131 37.9495 17 46.4304 17 43.5556C17 41.7493 18.4226 37.665 20.5556 37.0556C26.8584 35.2548 25.1435 45.0469 25 48.7778C24.7983 54.0218 22 59.1763 22 64.5556C22 67.6022 21 70.0429 21 73C21 75.0025 18 77.5987 18 74.5C18 63.5964 18.5417 52.5179 25.5556 43.5C26.8886 41.786 28.0304 39.0807 29.5 37.6111C29.6351 37.4761 27.0665 40.87 27 42C26.8183 45.0892 26.8022 46 30 46C31.9941 46 36.2256 45.9605 36.9444 43.4445C37.5326 41.3861 39.0602 39.9224 36.5 38.5C35.4893 37.9385 29.6146 38.1701 30.2222 38.7778C31.8333 40.3889 43.0124 39.2838 44 37.5556C47.1728 32.0032 42 30.492 42 38C42 44.2345 46.9336 45.5332 52 43" stroke="#131520" stroke-width="3" stroke-linecap="round"/>
<path d="M59 21C59.1774 19.5805 63.554 17.9197 65 18C68.2464 18.1804 67 24.6413 67 26.7778C67 34.1785 64 40.7045 64 48" stroke="#131520" stroke-width="3" stroke-linecap="round"/>
<path d="M80 19C80 26.5 80 34 80 41.5C80 43.1804 80.8904 48.387 79.7778 49.7778C78.8856 50.893 74.9296 43.0228 74.2222 41.2222C72.4807 36.7892 71.6468 27.4415 66 34.5C61.8013 39.7484 74.5221 38 77.5 38C80.0516 38 82.7076 36.241 85 35.2222C88.0845 33.8513 85 39.0544 85 40.7778C85 42.645 83.8512 49.4068 85.2222 50.7778C86.4836 52.0392 88 44.6365 88 44C88 36.0502 90.9971 48 94.5 48C102.455 48 93.9489 36.2289 94.5556 36.0556C96.5929 35.4735 101.073 37.1414 102.778 35.7778C105.683 33.4537 105 38.0963 105 40C105 50.6769 110.899 39.2024 111.944 34.5C112.517 31.9216 116.414 38.6259 117.222 40C119.506 43.8817 122.779 37.1529 124 36C127.11 33.0629 129.794 37.2385 131.778 39.2222C135.054 42.4987 135.597 37.0888 137.222 34C139.959 28.7992 141.289 36.4901 142 38.4444C143.04 41.3052 145.422 42.8079 148.444 41.9444C150.466 41.3667 146.801 40.4431 148.556 40.9444C150.014 41.361 151.984 41 153.5 41C156.867 41 156 32.7896 156 37.9444C156 42.9439 155.836 43.3044 160 41.2222C162.836 39.804 164.897 43.8583 167 45C171.426 47.4025 180.188 54.5725 175.556 43.5556C166.343 21.6444 140.528 13.58 122 2" stroke="#131520" stroke-width="3" stroke-linecap="round"/>
</svg>
